# xmcd
#
# Track frame offsets: 
#        150
#        27587
#        58524
#        98251
#        124546
#        160095
#        188757
#        210733
#
# Disc length: 3193 seconds
#
# Revision: 0
# Processed by: cddbd v1.5.2PL0 Copyright (c) Steve Scherf et al.
# Submitted via: ExactAudioCopy v1.0b3
#
DISCID=5e0c7708
DTITLE=Mystery Train - Live at the North American International Auto S
DTITLE=how
DYEAR=2002
DGENRE=Blues
TTITLE0=Rock with Me
TTITLE1=Honey Hush
TTITLE2=Need Your Love So Bad
TTITLE3=T-Bone Shuffle
TTITLE4=As the Years Go Passing By
TTITLE5=Help Me
TTITLE6=Standing on Shaky Ground
TTITLE7=Oh Well
EXTD=
EXTT0=
EXTT1=
EXTT2=
EXTT3=
EXTT4=
EXTT5=
EXTT6=
EXTT7=
PLAYORDER=
